<?xml version="1.0" standalone="no"?>
<!DOCTYPE svg PUBLIC "-//W3C//DTD SVG 20010904//EN"
 "http://www.w3.org/TR/2001/REC-SVG-20010904/DTD/svg10.dtd">
<svg version="1.0" xmlns="http://www.w3.org/2000/svg"
 width="1080.000000pt" height="1080.000000pt" viewBox="0 0 1080.000000 1080.000000"
 preserveAspectRatio="xMidYMid meet">

<g transform="translate(0.000000,1080.000000) scale(0.100000,-0.100000)"
fill="#000000" stroke="none">
<path d="M5335 10229 c-33 -6 -82 -8 -110 -6 -147 13 -524 -30 -603 -68 -115
-55 -95 -86 77 -116 124 -22 183 -28 345 -34 164 -7 168 -7 162 12 -4 13 0 26
12 36 16 14 24 15 53 6 39 -13 54 -25 54 -42 0 -18 52 -23 190 -17 l130 5 3
30 c2 17 10 33 17 38 8 4 12 14 9 22 -5 11 2 15 25 15 20 0 31 -5 31 -14 0 -7
7 -19 15 -26 8 -7 15 -21 15 -31 0 -12 10 -21 26 -25 32 -8 150 2 264 22 47 8
99 18 117 21 17 3 41 14 53 25 39 36 2 64 -133 99 -35 9 -51 18 -58 36 -10 27
-12 28 -44 7 -22 -14 -48 -15 -247 -5 -123 6 -250 13 -283 15 -33 2 -87 0
-120 -5z"/>
<path d="M4480 10163 c0 -11 3 -14 8 -7 4 6 14 14 22 17 10 4 8 6 -7 6 -16 1
-23 -5 -23 -16z"/>
<path d="M6258 10173 c6 -2 18 -2 25 0 6 3 1 5 -13 5 -14 0 -19 -2 -12 -5z"/>
<path d="M6303 10153 c9 -2 23 -2 30 0 6 3 -1 5 -18 5 -16 0 -22 -2 -12 -5z"/>
<path d="M6266 10094 c-5 -13 -3 -14 6 -6 7 6 29 12 48 15 34 4 34 4 -6 5 -31
2 -44 -2 -48 -14z"/>
<path d="M6524 10037 c-3 -9 -3 -22 1 -29 4 -7 0 -5 -8 5 -31 37 -222 11 -303
-41 -28 -17 -54 -32 -58 -32 -6 0 -77 -50 -112 -78 -5 -5 -21 -15 -34 -22 -23
-12 -23 -13 -17 -158 4 -105 1 -160 -8 -197 -8 -29 -11 -62 -8 -74 3 -11 0
-27 -6 -35 -18 -21 4 -24 94 -14 44 5 118 13 165 17 201 19 306 32 328 41 13
6 32 10 42 10 16 0 20 7 20 35 0 19 -3 35 -8 35 -10 0 -6 104 5 161 9 41 7 51
-13 85 -21 34 -23 46 -17 111 5 63 3 76 -13 94 -14 16 -16 24 -7 38 10 15 7
23 -12 41 -21 20 -25 21 -31 7z m-44 -597 c11 -7 5 -10 -23 -10 -23 0 -36 4
-32 10 8 13 35 13 55 0z"/>
<path d="M4149 9658 c0 -2 -1 -52 -2 -112 -3 -129 -1 -132 115 -147 188 -24
455 -49 474 -45 18 5 20 12 18 65 -2 33 -8 69 -13 80 -6 11 -11 33 -11 49 0
37 -12 47 -75 60 -93 21 -502 61 -506 50z"/>
<path d="M6878 9513 c7 -3 16 -2 19 1 4 3 -2 6 -13 5 -11 0 -14 -3 -6 -6z"/>
<path d="M6890 9281 c-96 -51 -298 -101 -540 -135 -306 -43 -461 -55 -844 -65
-273 -8 -847 1 -905 14 -14 3 -78 10 -141 15 -251 20 -461 62 -575 114 -76 35
-90 36 -90 6 0 -20 11 -30 65 -57 98 -50 295 -87 645 -124 184 -20 267 -22
675 -23 596 0 939 25 1310 96 58 11 125 24 150 29 104 19 293 93 312 123 21
31 -9 35 -62 7z"/>
<path d="M6935 9142 c-28 -24 -201 -80 -355 -116 -344 -78 -1150 -130 -1655
-107 -378 18 -553 35 -807 82 -98 18 -239 60 -263 79 -5 4 -22 10 -37 14 -25
6 -28 4 -28 -18 0 -32 43 -58 146 -91 165 -53 414 -86 824 -110 904 -53 1982
64 2183 238 15 14 27 27 27 31 0 9 -24 7 -35 -2z"/>
<path d="M6919 8981 c-14 -5 -41 -15 -60 -24 -80 -37 -151 -58 -334 -98 -72
-16 -238 -40 -335 -49 -371 -35 -482 -41 -850 -47 -323 -4 -451 -2 -630 11
-442 32 -690 76 -849 148 -46 21 -66 15 -59 -18 3 -19 74 -62 123 -75 116 -31
164 -41 270 -58 134 -21 254 -35 456 -51 138 -11 1042 -15 1059 -5 5 3 85 10
177 15 268 15 437 38 734 99 118 25 329 119 329 147 0 8 -1 14 -2 13 -2 0 -15
-4 -29 -8z"/>
<path d="M6895 8815 c-87 -41 -165 -68 -270 -94 -142 -35 -240 -53 -305 -58
-41 -3 -79 -9 -85 -13 -5 -4 -65 -11 -132 -15 -110 -6 -140 -14 -115 -28 18
-12 409 30 547 58 179 36 356 94 393 127 40 38 23 49 -33 23z"/>
<path d="M3807 8766 c-12 -31 37 -63 148 -100 75 -24 203 -48 410 -77 144 -21
64 -31 -193 -25 -179 4 -229 9 -258 22 -19 9 -37 15 -39 12 -3 -2 11 -21 30
-41 32 -33 35 -43 35 -95 0 -62 4 -71 37 -89 17 -10 22 -9 27 2 7 19 26 19 26
1 0 -20 18 -30 33 -18 15 13 210 31 255 25 19 -3 49 1 70 10 20 9 66 18 101
21 66 6 111 26 111 49 0 7 18 31 40 52 l41 40 182 -3 c112 -2 186 -7 194 -14
12 -10 78 -7 188 7 25 4 356 22 435 24 23 1 23 2 7 19 -12 12 -34 17 -69 17
-83 0 -69 21 19 29 43 4 82 11 88 16 5 4 21 10 35 13 21 4 20 4 -7 6 -17 0
-35 -4 -39 -10 -4 -6 -24 -9 -48 -6 -22 2 -90 -2 -151 -9 -277 -32 -341 -37
-513 -35 -293 2 -605 28 -842 70 -115 21 -241 57 -288 83 -39 22 -58 23 -65 4z"/>
<path d="M5860 8670 c0 -5 9 -10 19 -10 11 0 23 5 26 10 4 6 -5 10 -19 10 -14
0 -26 -4 -26 -10z"/>
<path d="M6900 8663 c-8 -3 -37 -16 -65 -28 -51 -23 -195 -68 -250 -79 -16 -3
-61 -13 -100 -21 -38 -9 -99 -20 -135 -25 -36 -5 -112 -16 -170 -25 -58 -9
-158 -20 -224 -25 -65 -5 -121 -12 -125 -16 -22 -22 525 23 674 56 248 56 347
86 402 123 47 32 42 58 -7 40z"/>
<path d="M5840 8600 c-11 -7 -5 -10 23 -10 23 0 36 4 32 10 -8 13 -35 13 -55
0z"/>
<path d="M6806 8469 c-65 -28 -223 -70 -311 -83 -22 -4 -83 -13 -135 -22 -124
-19 -229 -32 -370 -44 -63 -5 -153 -14 -200 -20 -47 -5 -112 -13 -145 -16
-105 -11 -32 -23 152 -23 306 -2 803 75 983 151 50 22 110 64 110 79 0 12 -5
11 -84 -22z"/>
<path d="M5618 8423 c23 -2 61 -2 85 0 23 2 4 4 -43 4 -47 0 -66 -2 -42 -4z"/>
<path d="M6771 8358 c-19 -11 -53 -26 -75 -35 -23 -8 -50 -19 -61 -24 -82 -37
-405 -134 -530 -160 -515 -105 -957 -157 -1500 -179 -148 -6 -343 -10 -433
-10 -90 1 -166 -1 -169 -4 -3 -3 4 -17 16 -32 11 -15 21 -37 21 -50 0 -12 4
-25 9 -28 5 -4 12 -45 15 -94 4 -48 11 -109 17 -135 11 -47 10 -50 -20 -87
l-31 -38 73 -4 c145 -7 610 26 660 47 24 10 4 13 -134 18 -108 4 -167 3 -175
-4 -16 -13 -206 11 -201 26 2 5 35 13 73 17 262 28 442 53 459 64 11 7 40 13
65 13 59 0 156 16 250 41 41 11 87 20 103 20 15 0 35 4 45 9 20 11 173 37 187
32 21 -8 55 0 96 21 24 12 65 23 93 24 28 2 78 12 111 24 67 24 120 36 212 50
34 5 75 15 90 23 15 8 53 20 83 28 30 7 61 17 68 23 7 5 25 10 40 12 15 1 50
11 77 22 28 11 75 28 105 37 191 61 442 267 414 340 -8 19 -11 18 -53 -7z"/>
<path d="M3976 8165 c4 -8 12 -15 20 -15 8 0 14 7 14 15 0 8 -9 15 -20 15 -13
0 -18 -5 -14 -15z"/>
<path d="M6615 7660 c-208 -97 -712 -225 -1080 -275 -538 -73 -816 -94 -1242
-95 -161 -1 -293 -2 -293 -4 0 -2 9 -13 20 -26 11 -13 20 -30 20 -40 0 -9 6
-22 13 -28 7 -8 15 -57 19 -125 3 -62 9 -128 13 -147 6 -30 3 -39 -20 -62 -48
-48 -32 -52 189 -45 258 8 460 25 511 42 l40 14 -45 2 c-25 2 -90 3 -145 3
-175 2 -495 19 -495 27 0 19 32 23 157 20 96 -2 172 3 271 18 75 11 176 23
225 27 48 3 87 9 87 14 0 10 52 19 160 25 94 5 157 15 270 40 41 9 109 20 150
25 158 15 326 51 408 87 18 8 56 18 85 23 55 9 153 37 226 64 24 9 64 19 90
22 43 5 162 51 169 65 2 4 32 22 67 40 35 18 77 43 92 56 15 13 42 33 59 44
41 25 72 78 84 140 17 87 -3 97 -105 49z"/>
<path d="M6665 7015 c-11 -7 -65 -30 -120 -50 -55 -20 -109 -40 -120 -45 -30
-14 -244 -77 -322 -95 -571 -133 -1289 -211 -1861 -203 -127 2 -232 1 -232 -2
0 -3 14 -32 30 -65 22 -45 30 -74 30 -116 0 -31 5 -81 11 -112 10 -48 9 -64
-5 -102 -10 -25 -22 -45 -27 -45 -5 0 -9 -7 -9 -15 0 -13 24 -15 158 -15 260
1 469 18 552 47 12 4 11 7 -5 13 -29 12 -79 12 -92 -1 -8 -8 -46 -8 -139 1
-71 6 -163 11 -204 10 -119 -3 -124 -2 -110 15 14 17 60 21 60 5 0 -13 63 -13
76 0 5 5 61 14 124 20 63 5 133 15 155 21 22 7 96 15 165 19 221 14 379 40
401 66 8 10 36 14 103 14 72 0 99 4 129 20 25 14 66 22 127 27 57 4 94 11 101
19 6 8 26 14 44 14 61 0 333 57 355 75 17 13 88 35 114 35 9 0 35 8 59 19 23
10 78 31 122 46 44 15 87 33 95 41 9 7 34 21 55 30 44 18 88 52 169 129 47 45
54 57 65 113 7 34 9 67 6 72 -9 14 -36 12 -60 -5z"/>
<path d="M6655 6345 c-27 -14 -87 -39 -134 -55 -46 -15 -88 -33 -94 -39 -6 -6
-16 -11 -23 -11 -6 0 -83 -20 -170 -45 -87 -25 -199 -54 -248 -65 -50 -10
-104 -21 -121 -25 -187 -40 -505 -83 -912 -125 -164 -17 -640 -33 -778 -26
-89 5 -135 3 -145 -4 -11 -9 -12 -13 -2 -17 6 -2 12 -13 12 -23 0 -10 7 -31
15 -46 8 -17 15 -57 16 -94 0 -82 20 -175 37 -175 6 0 11 -4 10 -10 -2 -5 -9
-9 -15 -9 -7 1 -13 -3 -13 -9 0 -6 -15 -24 -32 -39 -26 -22 -30 -30 -19 -37
21 -14 290 -12 456 3 83 7 154 11 158 9 12 -7 57 6 57 16 0 16 -64 23 -283 29
-234 8 -305 26 -105 27 72 1 121 5 130 13 8 6 72 16 144 22 71 6 158 15 194
21 36 5 133 18 215 29 83 10 166 24 185 29 19 6 51 11 71 11 19 0 60 7 90 16
30 9 72 18 94 20 69 5 168 22 225 40 30 9 78 21 107 28 28 6 55 15 59 19 4 4
16 7 27 7 22 0 112 25 167 46 19 7 64 19 100 25 36 6 79 17 95 25 75 32 109
44 130 44 12 0 28 7 35 16 8 8 27 21 44 28 87 37 216 137 261 203 30 43 32 53
26 146 -1 12 -13 8 -66 -18z"/>
<path d="M5048 6223 c12 -2 32 -2 45 0 12 2 2 4 -23 4 -25 0 -35 -2 -22 -4z"/>
<path d="M6665 5688 c-126 -67 -418 -164 -640 -215 -243 -55 -529 -101 -855
-139 -100 -12 -149 -22 -157 -32 -7 -8 -15 -35 -18 -61 -3 -25 -10 -54 -16
-63 -14 -27 -11 -35 21 -58 21 -15 66 -27 148 -40 127 -19 120 -20 407 19 144
19 166 23 210 41 58 23 252 63 265 55 5 -3 21 6 36 20 15 14 36 25 48 25 12 1
39 8 61 16 22 9 61 19 86 24 26 5 67 18 92 29 25 12 50 21 55 21 5 0 19 11 32
24 12 14 43 35 68 46 123 58 222 183 214 270 -2 22 -7 40 -11 40 -3 -1 -24
-10 -46 -22z"/>
<path d="M5040 5560 c0 -5 7 -10 15 -10 8 0 15 5 15 10 0 6 -7 10 -15 10 -8 0
-15 -4 -15 -10z"/>
<path d="M4780 5540 l-65 -6 75 -4 c89 -6 142 -1 134 11 -5 10 -38 9 -144 -1z"/>
<path d="M3980 5289 c0 -5 8 -13 18 -18 11 -6 26 -29 35 -53 17 -46 41 -286
31 -312 -3 -9 -24 -26 -45 -38 -21 -12 -39 -26 -39 -30 0 -5 83 -7 185 -6 152
2 187 6 195 18 8 13 -2 16 -57 23 -37 4 -80 14 -96 22 -17 8 -43 15 -59 15
-16 0 -27 4 -23 9 3 5 20 7 38 5 23 -4 41 1 68 19 33 22 42 24 110 17 86 -8
110 -4 107 18 -4 20 74 75 145 102 32 13 62 31 67 40 5 10 21 20 34 24 15 4
26 14 28 29 2 14 17 29 45 43 l42 21 -82 12 c-45 6 -113 11 -151 11 -38 0
-135 6 -215 14 -183 18 -381 26 -381 15z"/>
<path d="M6650 5015 c-7 -8 -18 -15 -24 -15 -6 0 -47 -15 -91 -34 -102 -42
-378 -127 -520 -160 -112 -25 -151 -33 -310 -61 -49 -8 -112 -20 -140 -25 -27
-5 -75 -12 -105 -15 -30 -3 -82 -10 -115 -15 -199 -30 -569 -60 -749 -60 -89
0 -167 -4 -174 -8 -10 -7 -8 -14 7 -33 15 -20 18 -38 16 -89 -3 -72 8 -115 29
-107 7 3 32 -3 56 -14 40 -18 112 -39 205 -59 23 -5 61 -4 90 1 28 5 109 13
181 18 73 5 142 15 155 22 13 7 51 13 84 14 38 0 82 9 119 25 54 22 60 22 71
7 15 -21 44 -22 51 -2 10 24 43 38 114 46 110 14 173 25 210 36 39 12 154 38
215 48 22 4 74 23 115 42 41 20 93 39 115 43 59 11 157 49 180 70 11 10 39 27
62 39 23 11 45 26 48 31 4 6 18 15 31 21 16 5 24 15 22 26 -2 12 4 19 20 21
12 2 22 6 22 10 0 4 14 22 30 41 30 34 33 42 45 114 6 36 5 37 -23 37 -16 0
-35 -7 -42 -15z"/>
<path d="M4260 4925 c0 -10 10 -15 33 -15 l32 1 -25 14 c-32 18 -40 18 -40 0z"/>
<path d="M4010 4608 c0 -8 8 -32 19 -54 12 -26 20 -73 25 -140 3 -56 9 -115
12 -132 6 -28 3 -33 -21 -42 -17 -7 -25 -16 -23 -27 4 -21 28 -27 75 -18 l35
6 -27 25 c-34 31 -29 52 18 84 20 14 46 40 57 58 25 41 77 73 106 66 31 -8 40
14 16 39 -12 13 -22 39 -24 62 -3 45 -3 45 -143 65 -44 6 -90 14 -102 17 -16
3 -23 1 -23 -9z"/>
<path d="M2547 4483 c-4 -3 -7 -25 -7 -49 0 -29 5 -44 16 -48 12 -5 15 -14 10
-39 -9 -45 -8 -81 4 -85 6 -2 10 -8 10 -14 0 -31 45 -128 75 -161 28 -31 42
-39 84 -44 57 -7 97 1 104 21 3 7 -10 39 -29 70 -18 31 -37 68 -40 81 -3 13
-12 29 -20 36 -8 6 -14 22 -14 35 0 17 -7 25 -27 30 -34 9 -51 25 -76 73 -24
46 -66 101 -76 101 -4 0 -11 -3 -14 -7z"/>
<path d="M6700 4383 c-8 -2 -33 -13 -55 -23 -182 -83 -462 -168 -730 -220 -82
-17 -172 -34 -200 -40 -27 -5 -104 -17 -170 -25 -66 -8 -154 -20 -195 -25
-329 -43 -704 -65 -986 -56 -120 3 -241 9 -268 12 -38 5 -47 3 -44 -7 2 -8 19
-20 36 -28 18 -8 32 -22 32 -30 0 -9 7 -29 15 -45 16 -31 21 -91 6 -81 -6 3
-21 29 -35 58 -27 58 -59 93 -76 82 -6 -4 -17 -2 -24 4 -20 17 -40 -13 -38
-54 2 -18 -2 -36 -8 -40 -7 -4 -7 -12 0 -25 5 -10 10 -36 10 -57 0 -47 62
-203 85 -216 15 -8 62 -4 108 9 17 5 17 7 2 18 -23 17 -12 81 12 72 9 -4 22
-1 29 5 11 9 15 8 20 -4 3 -9 26 -26 50 -37 50 -25 59 -50 16 -50 -18 0 -38
-10 -56 -29 -16 -16 -39 -32 -53 -35 -56 -15 -4 -24 114 -20 246 8 538 26 548
34 6 4 64 10 130 14 66 3 140 11 165 17 66 16 156 30 233 36 46 3 67 9 64 16
-5 16 -304 14 -320 -2 -7 -7 -57 -10 -142 -9 -121 2 -123 2 -32 5 74 3 99 7
104 18 3 8 16 15 30 15 13 0 34 5 46 12 25 14 85 25 212 39 58 6 94 15 101 25
8 10 36 15 98 17 49 2 91 8 98 15 7 7 24 12 40 12 15 0 50 9 78 20 28 11 66
20 84 20 18 0 62 13 97 29 36 16 89 34 119 39 30 6 81 22 113 36 32 14 68 26
81 26 27 0 186 78 186 91 0 5 5 9 11 9 19 0 131 82 185 136 29 30 59 54 66 54
8 1 7 5 -5 14 -16 13 -16 15 9 31 20 13 24 22 20 41 -4 13 -1 33 6 44 14 22 2
40 -22 33z"/>
<path d="M2883 4344 c-3 -8 -3 -47 1 -86 5 -60 4 -69 -9 -64 -19 7 -19 2 1
-54 15 -42 75 -151 99 -177 5 -6 30 -34 54 -62 61 -71 121 -103 185 -99 38 2
52 7 54 19 2 10 -20 55 -47 101 -28 47 -51 89 -51 95 0 5 -8 18 -19 27 -10 9
-21 31 -25 49 -3 18 -16 67 -29 109 -21 71 -24 76 -33 51 l-9 -26 -58 66 c-60
69 -100 86 -114 51z"/>
<path d="M3287 4293 c-7 -40 -36 -111 -37 -91 0 29 -19 31 -30 3 -11 -28 5
-65 27 -65 8 0 13 -14 12 -37 0 -35 -1 -36 -11 -15 -27 54 -38 8 -13 -52 9
-20 13 -41 10 -46 -4 -6 0 -22 9 -37 8 -16 20 -44 27 -63 17 -45 180 -206 255
-253 142 -88 253 -116 184 -47 -24 24 -26 40 -5 40 8 0 15 -6 15 -14 0 -21
101 -106 176 -148 68 -39 96 -47 90 -25 -15 46 -14 77 1 93 18 18 15 25 -54
131 -35 54 -63 122 -63 153 0 10 -7 23 -15 30 -8 7 -15 23 -15 35 0 13 -6 35
-14 51 -8 15 -12 39 -10 54 4 17 0 31 -10 39 -9 8 -16 19 -16 26 0 7 -7 18
-15 25 -13 10 -17 7 -30 -24 -8 -20 -19 -36 -24 -36 -12 0 -21 26 -21 59 0 20
-7 31 -25 39 -20 9 -25 18 -23 38 2 20 -3 28 -19 35 -21 8 -23 6 -23 -30 0
-23 -8 -48 -20 -63 -16 -21 -18 -31 -10 -59 8 -27 7 -36 -5 -45 -14 -10 -14
-14 0 -40 8 -16 15 -38 15 -49 0 -23 31 -107 71 -191 33 -70 34 -75 14 -68
-15 6 -117 161 -141 214 -36 80 -64 151 -64 164 0 8 -4 18 -10 21 -5 3 -10 21
-10 39 0 43 -33 87 -51 69 -21 -21 -39 -15 -55 20 -8 17 -22 43 -29 57 -8 14
-15 40 -15 58 0 39 -16 42 -23 5z m518 -278 c0 -6 -8 -21 -17 -35 -13 -17 -21
-21 -28 -14 -17 17 6 66 28 62 9 -2 17 -8 17 -13z"/>
<path d="M3251 4294 c0 -11 3 -14 6 -6 3 7 2 16 -1 19 -3 4 -6 -2 -5 -13z"/>
<path d="M8930 4300 c0 -5 7 -10 16 -10 8 0 12 5 9 10 -3 6 -10 10 -16 10 -5
0 -9 -4 -9 -10z"/>
<path d="M2831 4284 c0 -11 3 -14 6 -6 3 7 2 16 -1 19 -3 4 -6 -2 -5 -13z"/>
<path d="M3416 4218 c-3 -13 -1 -27 4 -32 7 -7 10 1 10 22 0 37 -5 41 -14 10z"/>
<path d="M8678 4198 c-36 -19 -43 -38 -14 -38 17 0 128 -45 199 -81 32 -16 64
-29 72 -29 25 0 17 28 -15 52 -16 12 -30 27 -30 34 0 18 -121 84 -151 83 -13
0 -41 -9 -61 -21z"/>
<path d="M4820 4200 c0 -5 5 -10 10 -10 6 0 10 5 10 10 0 6 -4 10 -10 10 -5 0
-10 -4 -10 -10z"/>
<path d="M8592 4138 c-18 -18 -15 -36 8 -43 11 -4 26 -19 33 -35 7 -16 38 -56
69 -89 88 -93 109 -166 44 -154 -12 3 -67 50 -122 105 -123 124 -129 128 -149
88 -8 -16 -19 -30 -24 -30 -5 0 -18 -17 -28 -37 -11 -21 -28 -53 -38 -72 -67
-127 -104 -307 -105 -506 -1 -78 2 -148 5 -157 10 -26 30 -28 87 -12 29 8 71
17 93 20 l40 5 -28 -25 c-16 -15 -40 -26 -56 -26 -16 0 -31 -7 -35 -15 -4 -10
-14 -13 -34 -9 -38 8 -47 -8 -27 -45 8 -17 15 -40 15 -51 0 -31 28 -78 79
-132 46 -49 67 -56 102 -38 11 6 36 13 56 16 44 5 114 35 131 57 11 13 10 16
-5 21 -10 3 -36 4 -58 3 -22 -2 -91 -1 -154 2 l-114 6 34 37 c30 33 41 38 97
44 58 6 64 5 69 -14 4 -18 14 -21 91 -24 119 -4 140 10 243 167 27 40 53 77
59 80 16 10 50 92 48 117 0 13 7 46 17 75 18 54 17 99 -3 303 -14 136 -24 160
-93 204 -33 21 -74 44 -92 50 -17 7 -61 27 -97 46 -36 19 -77 41 -92 48 -16 8
-28 18 -28 23 0 13 -24 11 -38 -3z m198 -755 c-1 -5 -14 -23 -29 -41 -35 -41
-53 -25 -19 18 21 27 49 40 48 23z m-132 -125 c7 -7 12 -18 12 -25 0 -23 -49
6 -50 30 0 11 25 8 38 -5z m-98 -24 c0 -14 -31 -20 -43 -7 -8 8 25 33 35 27 5
-3 8 -12 8 -20z m36 -71 c-10 -10 -19 5 -10 18 6 11 8 11 12 0 2 -7 1 -15 -2
-18z m-89 -29 c-3 -3 -12 -4 -19 -1 -8 3 -5 6 6 6 11 1 17 -2 13 -5z"/>
<path d="M8290 3973 c-30 -25 -86 -75 -123 -111 -58 -57 -67 -71 -62 -92 30
-117 47 -223 52 -322 4 -87 10 -118 19 -118 20 0 24 13 34 117 11 126 26 201
50 266 11 29 20 60 20 70 0 10 11 43 25 73 14 30 25 61 25 70 0 8 6 30 14 49
8 19 12 36 8 39 -4 2 -32 -16 -62 -41z"/>
<path d="M6525 3700 c-88 -36 -247 -91 -345 -120 -41 -12 -86 -26 -100 -31
-51 -19 -466 -97 -685 -129 -321 -47 -1112 -84 -1192 -56 -39 14 -25 -8 25
-41 26 -17 54 -46 63 -64 21 -42 49 -172 49 -221 0 -34 2 -37 33 -40 26 -2 32
-7 32 -26 0 -19 -9 -27 -38 -37 -44 -15 -77 -42 -77 -62 0 -14 14 -15 210 -13
249 3 667 51 847 96 33 9 72 15 85 13 12 -1 41 3 63 9 22 6 67 16 100 23 33 7
83 23 112 36 28 13 69 24 90 24 27 1 16 5 -41 15 -124 21 -120 29 39 64 22 5
69 14 105 20 35 6 73 18 82 27 11 10 27 14 46 10 21 -4 37 0 56 16 23 19 89
41 146 50 34 5 118 43 155 70 22 15 70 57 106 92 67 65 98 123 115 209 3 21
12 36 20 36 8 0 14 -4 14 -10 0 -5 11 -10 25 -10 21 0 25 5 25 30 0 25 -5 30
-37 39 -50 14 -48 15 -128 -19z m-887 -635 c-12 -28 -39 -32 -85 -14 l-28 11
25 13 c14 8 42 14 62 15 36 0 37 -1 26 -25z m-200 -22 c-2 -10 -17 -20 -38
-24 -55 -12 -155 -14 -154 -3 0 5 31 15 69 21 37 7 70 15 73 18 3 3 16 5 29 5
18 0 24 -5 21 -17z"/>
<path d="M5463 3663 c-25 -9 -13 -23 20 -23 44 0 78 10 71 21 -5 9 -70 11 -91
2z"/>
<path d="M7397 3535 c-22 -305 -15 -458 33 -650 22 -92 98 -252 147 -309 49
-58 40 -73 -10 -18 -45 49 -97 125 -97 141 0 5 -3 11 -8 13 -11 5 -84 167 -93
208 -44 193 -49 223 -60 365 -16 196 -27 215 -28 47 -1 -149 14 -324 30 -354
5 -10 9 -28 9 -40 0 -19 12 -60 40 -133 19 -51 80 -168 90 -175 14 -9 22 -57
11 -64 -7 -4 -11 1 -11 12 0 11 -7 25 -15 32 -8 7 -15 16 -15 21 0 5 -15 30
-34 56 -56 80 -115 233 -149 388 -13 58 -38 267 -50 415 -1 19 -6 -12 -11 -70
-5 -67 -4 -133 3 -183 6 -43 11 -103 11 -134 0 -57 25 -171 41 -187 5 -6 9
-22 9 -37 0 -15 4 -31 10 -34 16 -10 42 -72 38 -92 -4 -19 -88 143 -88 170 0
25 -11 47 -21 41 -17 -10 -9 -74 18 -131 15 -32 31 -59 35 -61 4 -2 8 -12 8
-22 0 -21 31 -80 43 -80 4 0 7 -10 7 -22 0 -41 -78 59 -126 162 -25 52 -51
107 -59 122 -8 14 -15 35 -15 46 0 20 -25 38 -34 23 -3 -4 1 -25 9 -47 7 -21
11 -42 8 -47 -6 -11 -23 2 -23 18 0 7 -7 15 -15 19 -9 3 -15 18 -15 34 0 16
-7 35 -15 42 -8 7 -24 44 -36 84 -11 39 -27 84 -35 99 -8 16 -15 41 -15 55 -1
17 -5 8 -11 -23 -12 -61 5 -203 35 -290 11 -33 37 -93 59 -134 21 -41 37 -78
36 -83 -4 -10 -78 60 -78 73 0 9 -88 149 -120 191 -11 14 -20 37 -20 50 0 12
-7 32 -15 42 -8 11 -15 30 -15 42 0 13 -4 26 -10 29 -5 3 -10 17 -10 31 0 15
-6 24 -16 24 -12 0 -14 -7 -9 -32 4 -18 11 -37 16 -42 15 -17 10 -60 -11 -86
l-20 -25 0 23 c0 12 5 22 10 22 6 0 10 11 10 25 0 28 -11 31 -40 13 -25 -16
-38 -3 -22 22 21 35 13 38 -38 13 -27 -13 -50 -27 -50 -31 0 -4 13 -19 29 -33
26 -22 28 -30 26 -80 -1 -30 -8 -64 -15 -76 -11 -18 -10 -25 11 -54 28 -41
124 -136 165 -164 30 -21 44 -27 155 -68 64 -23 138 -37 230 -42 30 -2 61 -12
87 -30 30 -20 49 -26 67 -21 13 3 34 2 45 -4 11 -5 29 -15 40 -20 11 -6 29
-10 40 -10 11 0 20 -5 20 -12 0 -6 3 -9 6 -6 3 4 -2 17 -11 31 -28 43 2 42 44
-2 22 -23 46 -41 55 -41 8 0 17 -4 20 -9 3 -5 18 -11 33 -14 16 -3 56 -15 91
-27 34 -13 66 -19 70 -15 4 4 1 10 -6 12 -14 5 -44 32 -143 130 -59 58 -136
190 -165 282 -65 203 -76 279 -83 551 -6 220 -7 235 -14 145z m-589 -523 c2
-7 -3 -12 -12 -12 -9 0 -16 7 -16 16 0 17 22 14 28 -4z m312 -263 c0 -5 -4 -9
-10 -9 -5 0 -10 7 -10 16 0 8 5 12 10 9 6 -3 10 -10 10 -16z m200 -39 c9 -16
8 -18 -5 -14 -8 4 -15 12 -15 20 0 20 7 17 20 -6z m45 -60 c3 -5 1 -10 -4 -10
-6 0 -11 5 -11 10 0 6 2 10 4 10 3 0 8 -4 11 -10z m-50 -30 c3 -5 1 -10 -4
-10 -6 0 -11 5 -11 10 0 6 2 10 4 10 3 0 8 -4 11 -10z m105 -19 c0 -6 -4 -13
-10 -16 -5 -3 -10 1 -10 9 0 9 5 16 10 16 6 0 10 -4 10 -9z"/>
<path d="M5835 3090 c-3 -5 3 -10 15 -10 12 0 18 5 15 10 -3 6 -10 10 -15 10
-5 0 -12 -4 -15 -10z"/>
<path d="M6375 3029 c-273 -112 -577 -187 -1005 -249 -265 -39 -737 -72 -937
-67 -96 2 -123 0 -123 -10 0 -7 4 -13 10 -13 36 0 90 -109 90 -181 0 -27 4
-49 9 -49 5 0 12 -19 16 -42 6 -31 18 -52 43 -75 20 -18 30 -33 24 -33 -7 0
-26 -12 -42 -27 -17 -16 -37 -34 -46 -41 -16 -15 -15 -33 4 -40 7 -2 12 3 12
12 0 17 26 22 32 6 8 -23 666 42 763 76 22 7 54 14 72 14 18 0 52 6 75 13 93
30 155 46 198 52 132 18 127 30 -16 40 -99 6 -101 6 -107 -16 -5 -20 -10 -21
-58 -16 -38 5 -55 3 -66 -8 -17 -17 -143 -21 -143 -5 0 6 10 10 23 10 13 0 27
4 32 9 6 5 39 11 75 15 80 6 133 16 140 26 3 4 45 11 93 17 55 7 93 16 100 25
7 9 44 20 82 27 39 6 80 14 93 17 18 5 22 2 22 -15 0 -11 5 -21 11 -21 7 0 9
10 5 25 -7 28 15 45 62 45 16 0 41 10 56 21 26 20 55 31 139 48 63 14 186 83
226 127 62 69 91 104 91 109 0 2 14 27 30 53 17 27 30 61 30 76 0 24 2 26 22
15 19 -10 20 -13 5 -24 -15 -10 -14 -13 4 -28 12 -11 19 -30 19 -55 0 -21 6
-47 14 -58 8 -11 27 -51 41 -87 15 -37 31 -67 35 -67 4 0 21 7 36 15 16 8 37
15 47 15 23 0 22 26 -3 43 -19 13 -80 71 -123 115 -12 14 -15 27 -11 50 4 21
3 32 -5 32 -6 0 -11 7 -11 15 0 17 29 9 47 -14 11 -14 12 -14 13 4 0 11 -9 27
-20 35 -26 19 -25 26 3 35 20 6 19 8 -13 15 -19 5 -43 7 -53 4 -10 -3 -20 1
-23 10 -9 23 -28 20 -139 -25z m-1298 -685 c-3 -3 -12 -4 -19 -1 -8 3 -5 6 6
6 11 1 17 -2 13 -5z"/>
<path d="M7145 3000 c-7 -12 2 -30 16 -30 12 0 12 27 0 35 -5 3 -12 1 -16 -5z"/>
<path d="M8260 2762 c0 -12 11 -24 30 -32 17 -7 30 -18 30 -24 0 -7 28 -22 63
-33 34 -12 82 -29 106 -38 46 -17 81 -13 81 9 0 8 -15 19 -32 26 -18 7 -53 22
-78 35 -25 12 -56 26 -70 30 -14 4 -32 13 -40 20 -8 7 -32 16 -52 20 -34 6
-38 5 -38 -13z"/>
<path d="M8335 2505 c-38 -13 -80 -24 -91 -24 -18 -1 -153 -47 -162 -55 -1 -2
0 -11 4 -20 5 -13 21 -16 77 -16 62 0 82 5 142 35 38 19 82 46 97 60 15 14 32
25 38 25 5 0 10 5 10 10 0 16 -39 10 -115 -15z"/>
<path d="M6320 2397 c-67 -28 -94 -37 -205 -76 -66 -22 -140 -47 -165 -56 -48
-15 -195 -51 -245 -58 -16 -3 -102 -19 -190 -35 -334 -64 -866 -112 -1090 -99
-89 5 -96 4 -65 -7 120 -44 142 -77 166 -237 8 -57 19 -116 25 -131 13 -32 -3
-70 -26 -62 -11 5 -15 -1 -15 -19 0 -16 7 -28 18 -31 32 -10 490 27 519 42 10
5 45 12 78 15 60 5 272 51 310 67 11 5 54 16 95 25 111 25 150 37 150 47 0 15
-105 8 -183 -11 -42 -11 -114 -23 -162 -27 -47 -4 -88 -11 -91 -15 -3 -5 -22
-9 -42 -9 -28 0 -33 3 -22 10 8 5 25 10 36 10 12 0 24 6 27 14 3 8 14 12 24
10 10 -3 43 2 73 11 30 9 108 24 173 34 81 13 122 24 130 35 7 9 46 23 92 32
58 12 86 23 100 40 16 18 31 24 63 24 39 0 66 11 146 57 11 7 40 13 63 13 39
0 43 3 87 63 24 35 55 71 68 79 31 21 86 138 105 224 6 26 -14 35 -47 21z
m-1207 -694 c-13 -2 -35 -2 -50 0 -16 2 -5 4 22 4 28 0 40 -2 28 -4z"/>
<path d="M6406 2361 c-9 -14 -19 -151 -11 -151 4 0 19 6 33 14 15 8 34 17 43
19 12 4 15 13 11 32 -3 16 0 30 8 35 18 11 4 28 -37 45 -42 18 -40 17 -47 6z"/>
<path d="M6254 1722 c-4 -20 -8 -50 -9 -67 -4 -53 -14 -119 -23 -150 -14 -46
-6 -54 33 -36 29 13 34 21 35 49 0 28 3 33 23 32 45 -4 54 -1 35 14 -10 7 -18
20 -18 29 0 15 27 30 46 26 43 -8 36 26 -7 35 -43 8 -89 46 -89 72 0 39 -17
36 -26 -4z"/>
<path d="M6159 1718 c-30 -10 -65 -22 -79 -24 -14 -3 -34 -10 -45 -15 -127
-57 -508 -147 -800 -190 -178 -25 -453 -48 -587 -49 -80 0 -153 -3 -162 -6
-25 -10 -19 -22 17 -38 73 -31 107 -92 107 -196 0 -69 10 -110 33 -135 6 -8
25 -29 40 -49 15 -19 41 -37 56 -41 16 -3 43 -22 60 -41 17 -18 36 -34 42 -34
18 0 23 33 6 45 -10 7 -17 15 -17 19 0 8 93 8 114 0 22 -9 20 -24 -4 -24 -10
0 -30 -5 -44 -11 -24 -11 -24 -12 -8 -38 36 -55 69 -70 68 -29 -1 31 23 33 59
4 l30 -24 -30 -13 -30 -12 51 -12 c29 -7 62 -20 75 -29 13 -9 35 -16 49 -16
14 0 30 -4 36 -9 5 -5 54 -15 109 -21 100 -12 260 -2 310 20 11 5 34 11 50 13
45 7 159 50 168 64 4 7 17 13 28 13 24 0 54 17 89 50 14 14 41 37 58 53 18 15
32 33 32 40 1 18 33 54 57 61 35 11 69 80 53 105 -5 9 -14 9 -34 1 -15 -5 -42
-10 -59 -10 -18 0 -57 -9 -87 -21 -58 -21 -77 -26 -260 -58 -63 -12 -124 -25
-135 -30 -11 -5 -56 -12 -100 -15 -44 -3 -111 -13 -150 -22 -38 -9 -83 -16
-100 -15 -16 1 -51 2 -76 1 -27 0 -52 6 -58 14 -9 11 2 14 61 19 41 3 103 17
141 31 37 14 80 26 95 26 39 1 135 34 140 50 4 10 -10 12 -67 7 -39 -4 -102
-10 -141 -13 -59 -6 -70 -5 -70 9 0 11 14 17 48 21 93 10 127 18 138 32 12 15
157 39 180 30 7 -3 19 3 26 13 18 25 51 41 85 41 18 0 49 15 81 39 36 28 67
42 100 47 27 3 62 18 82 33 19 14 41 25 48 23 6 -2 12 3 12 11 0 7 21 35 46
63 46 49 104 152 104 185 0 10 4 21 10 24 5 3 14 14 20 25 15 28 -9 31 -71 8z
m-1021 -635 c-15 -2 -42 -2 -60 0 -18 2 -6 4 27 4 33 0 48 -2 33 -4z m-98
-102 c0 -6 -4 -13 -10 -16 -5 -3 -10 1 -10 9 0 9 5 16 10 16 6 0 10 -4 10 -9z
m88 -138 c2 -9 -7 -13 -27 -13 -30 0 -39 9 -24 24 11 10 46 3 51 -11z m170
-20 c2 -9 -7 -13 -27 -13 -30 0 -39 9 -24 24 11 10 46 3 51 -11z m138 -12 c-5
-8 -56 -3 -56 5 0 2 14 4 31 4 16 0 28 -4 25 -9z m111 3 c-3 -3 -12 -4 -19 -1
-8 3 -5 6 6 6 11 1 17 -2 13 -5z"/>
<path d="M5648 1183 c6 -2 18 -2 25 0 6 3 1 5 -13 5 -14 0 -19 -2 -12 -5z"/>
<path d="M5543 1153 c9 -2 25 -2 35 0 9 3 1 5 -18 5 -19 0 -27 -2 -17 -5z"/>
</g>
</svg>
